<?xml version="1.0" standalone="no"?>
<!DOCTYPE svg PUBLIC "-//W3C//DTD SVG 20010904//EN"
 "http://www.w3.org/TR/2001/REC-SVG-20010904/DTD/svg10.dtd">
<svg version="1.0" xmlns="http://www.w3.org/2000/svg"
 width="1251.000000pt" height="1251.000000pt" viewBox="0 0 1251.000000 1251.000000"
 preserveAspectRatio="xMidYMid meet">
<metadata>
Created by potrace 1.14, written by Peter Selinger 2001-2017
</metadata>
<g transform="translate(0.000000,1251.000000) scale(0.100000,-0.100000)"
fill="#000000" stroke="none">
<path d="M3565 11961 c-27 -10 -88 -41 -135 -68 -112 -66 -559 -323 -940 -540
-168 -95 -312 -177 -320 -182 -8 -5 -89 -52 -180 -103 -204 -115 -265 -170
-298 -271 l-22 -67 0 -4471 c0 -4945 -6 -4524 63 -4626 28 -41 129 -131 149
-133 7 0 144 -78 178 -100 8 -6 22 -13 30 -17 42 -19 944 -538 1285 -739 66
-40 180 -94 205 -99 101 -20 180 -12 267 27 26 12 140 75 251 140 112 66 218
127 235 137 18 10 66 38 107 63 41 25 95 56 120 70 25 14 77 44 117 67 39 22
87 49 105 59 18 11 112 64 209 119 96 55 197 113 225 128 27 15 87 49 134 75
188 105 191 108 247 175 42 51 76 123 87 186 4 19 6 421 6 894 l0 860 24 48
c30 61 59 84 201 162 92 50 231 128 275 154 19 11 53 30 75 42 22 12 128 74
235 139 224 134 253 147 285 126 13 -8 25 -27 28 -43 3 -15 4 -545 3 -1178 -2
-1241 -2 -1236 50 -1330 25 -44 106 -135 121 -135 3 0 14 -6 22 -14 9 -8 72
-45 141 -83 69 -39 148 -83 175 -98 28 -16 84 -47 125 -70 41 -24 194 -111
340 -195 146 -84 285 -163 310 -177 25 -14 50 -29 55 -33 6 -4 30 -19 55 -32
25 -14 128 -74 230 -134 102 -59 212 -119 245 -132 84 -35 181 -37 265 -8 36
12 227 117 425 233 322 188 560 324 915 525 106 60 156 88 280 155 143 79 227
181 253 311 9 45 12 1098 11 4498 0 4075 -2 4444 -17 4494 -21 72 -64 138
-118 182 -39 32 -77 56 -226 139 -114 64 -498 282 -540 307 -27 16 -71 42 -99
57 -27 15 -185 107 -352 204 -167 97 -329 191 -360 209 -144 83 -203 106 -278
108 -100 2 -157 -19 -363 -140 -142 -83 -424 -246 -614 -355 -91 -53 -377
-216 -412 -236 -22 -12 -130 -73 -240 -135 -254 -143 -288 -167 -335 -240 -65
-102 -63 -74 -64 -1045 -1 -842 -2 -882 -20 -915 -29 -54 -62 -78 -238 -175
-90 -49 -220 -122 -290 -162 -70 -40 -144 -82 -165 -94 -21 -12 -49 -29 -63
-39 -14 -9 -32 -20 -40 -23 -8 -4 -44 -25 -80 -48 -96 -60 -136 -79 -169 -79
-64 0 -61 -64 -60 1232 0 645 -2 1182 -5 1193 -18 84 -48 147 -98 205 -32 38
-107 86 -254 165 -22 13 -137 78 -255 145 -117 68 -234 134 -259 148 -47 26
-308 176 -420 242 -113 66 -443 257 -485 280 -22 12 -44 26 -50 30 -5 4 -35
16 -65 27 -72 26 -170 28 -235 4z m5625 -811 c173 -100 340 -196 370 -212 61
-34 383 -219 388 -223 4 -3 -86 -56 -473 -278 -187 -107 -401 -230 -475 -273
-99 -57 -145 -78 -171 -78 -26 0 -66 17 -150 66 -63 36 -132 76 -154 88 -22
12 -85 48 -140 80 -55 32 -119 69 -141 82 -389 220 -533 304 -534 311 0 4 8
11 18 14 9 4 61 33 115 65 54 32 100 58 101 58 4 0 179 100 191 110 6 4 35 21
65 37 30 16 97 54 148 84 51 30 103 59 115 66 12 6 92 53 177 103 138 80 159
90 195 86 29 -3 124 -52 355 -186z m-5809 -48 c7 -17 10 -153 9 -372 -4 -863
-1 -3940 4 -3980 25 -187 114 -289 253 -290 71 -1 102 5 167 32 42 18 166 84
248 133 9 5 34 20 55 31 21 12 146 83 278 159 132 76 255 147 274 157 19 11
111 64 206 118 95 54 187 107 206 118 19 11 169 97 334 192 165 95 320 184
345 198 25 13 70 39 100 58 65 38 694 402 730 421 14 8 43 25 65 39 22 13 57
33 78 45 21 11 82 46 135 77 139 82 176 97 247 97 77 0 98 -9 285 -123 147
-89 301 -179 400 -234 58 -32 178 -97 256 -140 95 -51 128 -82 120 -112 -3
-14 -21 -36 -39 -49 -28 -21 -191 -117 -339 -200 -71 -39 -396 -226 -432 -248
-17 -10 -38 -22 -46 -26 -8 -4 -37 -20 -65 -36 -27 -17 -70 -41 -95 -55 -25
-14 -58 -33 -75 -43 -16 -10 -77 -44 -135 -77 -58 -33 -303 -173 -545 -312
-242 -139 -460 -264 -485 -278 -25 -14 -57 -33 -72 -43 -14 -11 -28 -19 -31
-19 -3 0 -119 -66 -258 -146 -140 -80 -333 -191 -429 -246 -96 -56 -188 -109
-205 -119 -32 -18 -122 -71 -190 -109 -32 -18 -304 -174 -612 -352 -21 -12
-60 -34 -88 -50 -27 -16 -57 -33 -65 -38 -27 -17 -183 -106 -265 -151 -44 -24
-96 -53 -116 -64 -94 -52 -158 -129 -185 -222 -15 -51 -19 -499 -14 -1578 1
-243 -9 -283 -82 -351 -32 -30 -55 -44 -213 -129 -200 -108 -423 -237 -621
-358 -159 -97 -194 -102 -213 -30 -6 25 -10 1263 -10 3563 0 1939 0 3730 -1
3981 -1 479 2 522 44 587 38 59 61 76 252 181 264 145 409 228 618 355 153 93
193 100 217 38z m830 -48 c135 -81 421 -246 534 -309 28 -15 91 -50 140 -77
125 -69 170 -106 195 -158 l22 -45 -1 -1245 c-1 -746 -6 -1259 -11 -1280 -14
-52 -45 -76 -230 -180 -91 -51 -324 -185 -519 -297 -194 -112 -356 -201 -359
-199 -3 3 -5 864 -5 1913 0 1367 4 1916 11 1936 20 49 60 38 223 -59z m3787
-1191 c347 -199 489 -285 505 -307 24 -34 23 16 27 -1003 1 -296 -5 -305 -145
-229 -62 34 -271 154 -402 232 -41 24 -76 44 -78 44 -2 0 -32 17 -66 38 -35
21 -93 55 -129 74 -178 98 -265 155 -283 186 -18 31 -19 59 -19 605 1 315 1
600 1 635 l1 64 53 -31 c28 -17 269 -155 535 -308z m2247 273 c10 -43 12
-8030 2 -8075 -19 -90 -84 -160 -207 -221 -80 -40 -257 -139 -455 -255 -384
-225 -415 -240 -440 -215 -7 8 -16 29 -19 45 -3 17 -6 993 -7 2170 -1 1986 -2
2146 -18 2220 -18 85 -29 110 -69 163 -71 93 -214 102 -387 23 -48 -23 -521
-290 -640 -363 -16 -10 -37 -21 -45 -25 -8 -4 -37 -20 -65 -36 -27 -17 -70
-41 -95 -55 -25 -14 -58 -33 -75 -43 -16 -10 -46 -26 -65 -37 -19 -11 -152
-87 -295 -169 -143 -82 -269 -155 -280 -161 -11 -6 -66 -38 -123 -72 -56 -33
-104 -60 -106 -60 -2 0 -53 -29 -114 -64 -61 -36 -131 -76 -154 -89 -64 -36
-322 -186 -704 -408 -188 -109 -361 -206 -385 -216 -26 -10 -70 -18 -109 -18
-74 0 -131 22 -246 97 -38 25 -154 93 -259 153 -104 59 -237 135 -295 168 -58
33 -130 73 -160 88 -67 35 -91 55 -107 91 -12 27 -11 28 55 66 150 87 689 397
712 409 14 8 41 23 60 35 19 11 156 90 304 175 148 86 283 163 300 173 17 10
54 31 81 46 28 14 62 35 77 45 14 11 28 19 31 19 2 0 82 45 177 100 95 55 175
100 177 100 2 0 29 16 59 35 30 19 57 35 59 35 3 0 38 19 78 43 66 40 95 56
197 115 19 11 152 87 295 169 143 82 382 220 530 305 149 85 314 181 367 212
54 31 100 56 103 56 2 0 28 15 57 33 29 19 82 50 118 69 130 71 686 387 737
419 126 78 200 187 219 319 4 30 6 134 5 230 -5 314 -3 1464 2 1491 17 85 63
128 239 224 157 86 465 262 660 378 169 100 212 113 223 63z m-1728 -6850 l0
-1955 -21 11 c-12 6 -158 90 -326 186 -329 190 -552 317 -640 365 -73 40 -109
74 -116 112 -3 18 -6 601 -7 1296 -1 1160 1 1267 16 1296 16 30 84 72 427 265
25 14 97 56 160 93 63 37 140 80 170 97 30 17 80 45 110 63 101 60 215 125
221 125 3 0 6 -880 6 -1954z m-4392 894 c17 -10 117 -67 223 -129 107 -61 196
-111 198 -111 2 0 21 -11 42 -23 20 -13 57 -35 82 -49 88 -49 126 -71 190
-108 36 -21 81 -47 102 -58 77 -43 107 -68 122 -100 14 -29 16 -111 16 -662 0
-347 -2 -630 -5 -630 -2 0 -27 13 -55 30 -28 17 -53 30 -55 30 -3 0 -29 16
-59 35 -30 19 -57 35 -60 35 -3 0 -55 29 -117 65 -61 36 -135 79 -163 95 -28
15 -102 58 -165 94 -62 36 -117 66 -122 66 -5 0 -9 5 -9 12 0 6 -3 8 -7 5 -3
-4 -13 -1 -22 7 -9 7 -41 27 -71 43 -103 57 -145 82 -175 107 l-30 24 -3 652
-2 652 57 -32 c32 -18 72 -41 88 -50z m-373 -1778 c69 -40 264 -152 278 -161
13 -8 256 -149 331 -191 368 -208 439 -253 422 -265 -10 -7 -97 -57 -193 -112
-337 -192 -720 -413 -757 -436 -21 -13 -45 -27 -53 -31 -8 -4 -26 -13 -40 -21
-52 -30 -88 -20 -251 73 -85 49 -325 187 -534 307 -209 119 -384 221 -388 225
-5 4 45 38 110 75 65 37 159 92 208 120 256 149 695 402 732 421 47 25 86 23
135 -4z"/>
</g>
</svg>
